<?xml version="1.0" standalone="no"?>
<!DOCTYPE svg PUBLIC "-//W3C//DTD SVG 20010904//EN"
 "http://www.w3.org/TR/2001/REC-SVG-20010904/DTD/svg10.dtd">
<svg version="1.0" xmlns="http://www.w3.org/2000/svg"
 width="242.000000pt" height="242.000000pt" viewBox="0 0 242.000000 242.000000"
 preserveAspectRatio="xMidYMid meet">
<metadata>
Created by potrace 1.11, written by Peter Selinger 2001-2013
</metadata>
<g transform="translate(0.000000,242.000000) scale(0.100000,-0.100000)"
fill="#000000" stroke="none">
<path d="M810 2175 l0 -75 -165 0 -165 0 0 -75 0 -75 -80 0 -80 0 0 -75 0 -75
-80 0 -80 0 0 -225 0 -225 -80 0 -80 0 0 -590 0 -590 80 0 80 0 0 75 0 75 80
0 80 0 0 75 0 75 80 0 80 0 0 -75 0 -75 85 0 85 0 0 -75 0 -75 160 0 160 0 0
150 0 150 160 0 160 0 0 -150 0 -150 160 0 160 0 0 75 0 75 80 0 80 0 0 75 0
75 85 0 85 0 0 -75 0 -75 80 0 80 0 0 -75 0 -75 80 0 80 0 0 590 0 590 -80 0
-80 0 0 225 0 225 -80 0 -80 0 0 75 0 75 -85 0 -85 0 0 75 0 75 -160 0 -160 0
0 75 0 75 -320 0 -320 0 0 -75z"/>
</g>
</svg>
